<?xml version="1.0" standalone="no"?>
<!DOCTYPE svg PUBLIC "-//W3C//DTD SVG 20010904//EN"
 "http://www.w3.org/TR/2001/REC-SVG-20010904/DTD/svg10.dtd">
<svg version="1.0" xmlns="http://www.w3.org/2000/svg"
 width="512.000000pt" height="512.000000pt" viewBox="0 0 512.000000 512.000000"
 preserveAspectRatio="xMidYMid meet">

<g transform="translate(0.000000,512.000000) scale(0.100000,-0.100000)"
fill="#000000" stroke="none">
<path d="M1972 5100 c-40 -11 -96 -32 -124 -47 -117 -63 -221 -190 -259 -313
l-19 -65 -99 3 c-125 5 -190 -9 -294 -60 -112 -56 -229 -171 -280 -278 -54
-110 -70 -186 -65 -300 l5 -96 -49 -34 c-83 -56 -99 -127 -42 -181 41 -38 86
-32 167 24 l68 47 114 0 115 0 24 -37 c13 -21 42 -69 63 -107 l40 -69 -23 -34
c-35 -52 -46 -98 -42 -176 5 -114 61 -201 163 -255 69 -37 188 -38 255 -3 57
29 116 85 141 134 l19 37 305 0 305 0 0 -710 0 -710 -153 0 -153 0 -61 106
-61 106 31 50 c30 48 32 57 32 142 0 75 -4 98 -23 133 -56 107 -147 165 -261
169 l-66 3 -77 133 c-43 73 -87 141 -99 151 -19 15 -53 17 -379 17 l-357 0
-44 62 c-90 127 -123 147 -189 113 -64 -33 -67 -93 -9 -184 l41 -65 -44 -35
c-359 -290 -433 -810 -170 -1199 51 -75 182 -197 258 -241 l59 -35 1 -85 c2
-111 25 -204 79 -316 90 -187 236 -317 440 -391 59 -21 60 -22 87 -89 74 -181
224 -316 426 -383 67 -22 94 -26 207 -26 114 0 140 4 210 27 44 15 108 43 143
64 58 34 175 145 215 203 15 22 18 23 27 8 30 -48 105 -129 154 -167 178 -134
417 -175 632 -107 190 60 330 187 419 378 32 70 37 75 77 87 117 36 264 135
348 236 114 137 170 279 178 451 l5 110 71 44 c92 57 201 165 264 263 196 301
186 697 -24 993 -42 60 -187 204 -205 204 -6 0 3 19 19 43 93 135 135 272 135
437 0 177 -46 323 -147 464 -46 64 -136 153 -184 182 -28 16 -28 16 -27 132 0
97 -4 129 -24 191 -51 156 -178 300 -326 371 -108 51 -161 62 -284 59 l-104
-3 -17 55 c-29 94 -70 162 -139 229 -148 145 -373 197 -566 130 -76 -26 -183
-98 -229 -154 l-35 -43 -73 71 c-143 139 -323 186 -516 136z m238 -196 c126
-37 211 -130 239 -262 6 -29 11 -138 11 -242 l0 -190 -78 0 -79 0 -18 41 c-10
22 -41 60 -67 84 -148 133 -387 82 -470 -100 -31 -68 -32 -180 -2 -246 100
-218 424 -233 535 -24 l24 45 77 0 78 0 0 -260 0 -260 -305 0 -305 0 -20 39
c-46 92 -137 149 -252 160 l-72 6 -81 140 c-62 105 -89 142 -111 152 -18 7
-79 12 -156 13 l-128 0 0 65 c0 139 72 269 195 352 94 63 246 81 355 43 79
-28 116 -26 149 8 24 23 29 38 33 102 4 41 16 100 27 131 62 166 247 255 421
203z m942 -16 c70 -32 136 -96 167 -163 15 -31 28 -86 35 -142 17 -144 54
-168 189 -122 92 31 209 24 300 -19 170 -79 271 -266 238 -440 -23 -121 -24
-131 -8 -155 8 -13 45 -41 82 -63 111 -64 228 -199 250 -287 l7 -27 -398 2
-399 3 -58 102 -59 102 33 67 c28 56 33 77 33 135 -2 165 -149 308 -309 298
l-46 -3 -70 124 c-39 69 -83 137 -97 153 l-26 27 -179 0 -179 0 4 93 c5 109
26 163 88 231 80 86 154 118 270 113 55 -3 91 -10 132 -29z m-174 -710 l59
-101 -31 -50 c-25 -41 -31 -62 -34 -123 -6 -105 16 -164 87 -235 64 -64 123
-89 210 -89 l56 0 73 -129 c40 -71 84 -139 98 -152 l26 -24 464 -3 465 -3 -6
-47 c-14 -105 -67 -227 -130 -299 l-37 -43 -203 0 c-245 0 -222 12 -328 -173
l-74 -128 -64 -3 c-107 -4 -201 -60 -255 -152 l-26 -44 -334 0 -334 0 0 150 0
150 140 0 c77 0 149 5 163 11 27 12 23 7 139 207 64 110 88 161 88 186 0 41
-176 354 -217 386 -23 18 -41 20 -169 20 l-144 0 0 395 0 395 129 0 129 0 60
-102z m-887 3 c40 -40 40 -89 0 -133 -76 -85 -209 9 -157 110 20 39 41 51 89
52 29 0 45 -7 68 -29z m1236 -223 c24 -20 42 -70 36 -101 -8 -39 -57 -77 -100
-77 -50 0 -93 45 -93 97 0 43 21 80 54 94 26 11 83 4 103 -13z m-1696 -496
c74 -66 12 -186 -88 -167 -73 13 -99 111 -44 166 40 39 89 40 132 1z m1285
-269 c32 -54 57 -102 57 -108 0 -6 -25 -55 -57 -108 l-57 -97 -99 0 -100 0 0
205 0 205 99 0 100 0 57 -97z m-1403 -614 l58 -100 -30 -60 c-41 -82 -48 -136
-27 -213 36 -132 138 -216 274 -226 l74 -5 78 -135 c50 -88 88 -141 106 -152
25 -15 56 -18 222 -18 l192 0 0 -509 c0 -279 -4 -530 -9 -557 -33 -173 -148
-312 -310 -376 -75 -29 -240 -32 -320 -5 -150 51 -268 172 -313 322 -27 91
-45 109 -126 130 -193 47 -351 185 -412 358 -25 70 -45 206 -33 218 5 5 157 8
338 7 l329 -3 58 -101 58 -100 -32 -63 c-28 -54 -32 -74 -32 -135 0 -62 4 -83
32 -139 52 -106 144 -161 267 -161 162 1 281 113 293 275 7 97 -17 159 -87
230 -64 64 -123 89 -210 89 l-56 0 -74 130 c-41 71 -85 140 -98 152 -25 23
-25 23 -452 28 l-427 5 -59 35 c-76 45 -181 149 -227 225 -37 61 -88 197 -88
234 0 20 5 21 103 21 l104 0 18 -39 c42 -94 145 -155 261 -155 60 0 81 4 138
33 107 52 158 136 160 261 1 63 -4 84 -27 132 -65 132 -215 196 -362 154 -46
-14 -70 -29 -116 -75 -32 -32 -61 -70 -65 -85 -6 -26 -6 -26 -110 -26 -103 0
-104 0 -104 24 0 38 46 163 82 223 46 77 128 165 200 213 l60 40 322 0 322 0
57 -101z m2817 86 c55 -28 149 -115 195 -179 107 -150 156 -343 129 -508 l-7
-38 -349 0 c-371 0 -403 -4 -427 -48 -7 -13 -11 -92 -11 -204 0 -145 3 -188
15 -204 8 -12 80 -59 160 -105 l145 -83 0 -76 c0 -151 -54 -276 -169 -391 -45
-45 -98 -86 -131 -102 l-55 -28 -5 136 -5 135 -184 184 -185 185 12 39 c17 56
15 140 -5 198 -23 69 -110 155 -182 179 -138 45 -296 -16 -362 -140 l-24 -45
-112 0 -113 0 0 305 0 305 335 0 335 0 20 -40 c26 -51 79 -104 133 -132 35
-19 58 -23 132 -23 103 0 147 17 210 82 65 67 80 106 80 214 0 89 -2 99 -30
145 l-31 49 59 103 60 102 169 0 c130 0 176 -3 198 -15z m-2487 -296 c63 -32
77 -111 28 -160 -89 -89 -225 40 -142 135 30 34 76 44 114 25z m1817 -4 c37
-19 50 -43 50 -93 0 -33 -6 -45 -31 -66 -19 -17 -43 -26 -64 -26 -21 0 -45 9
-64 26 -25 21 -31 33 -31 66 0 49 13 73 48 92 35 19 56 20 92 1z m-2656 -196
c33 -15 60 -72 51 -107 -29 -116 -194 -98 -195 21 0 73 74 118 144 86z m3556
-438 c0 -5 -20 -35 -44 -68 -46 -61 -123 -128 -193 -170 l-43 -25 -110 64
-110 63 0 73 0 72 250 0 c142 0 250 -4 250 -9z m-1319 -190 c68 -69 8 -184
-87 -167 -58 11 -93 73 -74 131 22 68 110 87 161 36z m-332 -208 c62 -120 220
-188 346 -149 l50 16 158 -158 158 -157 -3 -170 c-3 -168 -3 -171 -35 -238
-78 -165 -254 -277 -433 -277 -225 0 -418 149 -475 367 -12 46 -15 132 -15
430 l0 373 115 0 115 0 19 -37z m-888 -412 c51 -51 31 -139 -36 -161 -86 -28
-159 52 -120 133 30 63 107 77 156 28z"/>
<path d="M556 3509 c-63 -17 -92 -80 -62 -137 20 -38 44 -52 91 -52 81 0 123
95 70 158 -28 33 -57 42 -99 31z"/>
</g>
</svg>
