<?xml version="1.0" encoding="UTF-8" standalone="no"?>
<!-- Created with Inkscape (http://www.inkscape.org/) -->
<svg width="500" height="110" viewBox="0 0 132.29167 29.104167" version="1.1" id="svg5" sodipodi:docname="Zilog 1990s.svgz" inkscape:version="1.1.1 (3bf5ae0d25, 2021-09-20)" xmlns:inkscape="http://www.inkscape.org/namespaces/inkscape" xmlns:sodipodi="http://sodipodi.sourceforge.net/DTD/sodipodi-0.dtd" xmlns="http://www.w3.org/2000/svg" xmlns:svg="http://www.w3.org/2000/svg" xmlns:rdf="http://www.w3.org/1999/02/22-rdf-syntax-ns#" xmlns:cc="http://creativecommons.org/ns#" xmlns:dc="http://purl.org/dc/elements/1.1/">
  <title id="title26186">Zilog logo</title>
  <sodipodi:namedview id="namedview7" pagecolor="#ffffff" bordercolor="#666666" borderopacity="1.0" inkscape:pageshadow="2" inkscape:pageopacity="0.0" inkscape:pagecheckerboard="0" inkscape:document-units="px" showgrid="false" showguides="true" inkscape:guide-bbox="true" inkscape:object-paths="true" inkscape:snap-intersection-paths="true" inkscape:snap-smooth-nodes="true" inkscape:zoom="1" inkscape:cx="287" inkscape:cy="-31" inkscape:current-layer="layer1" inkscape:snap-global="true" units="px" fit-margin-top="0" fit-margin-left="0" fit-margin-right="0" fit-margin-bottom="0"/>
  <defs id="defs2"/>
  <g inkscape:label="Layer 1" inkscape:groupmode="layer" id="layer1" transform="translate(51.519335,-152.71212)">
    <path style="color:#000000;fill:#000000;fill-opacity:1;stroke-width:0.999999;stroke-linejoin:round;-inkscape-stroke:none;paint-order:markers stroke fill" d="M -13.427601,156.08778 -16.240956,160.88631 H 5.4281801 C 6.4488823,160.88631 6.5959144,161.94302 5.6754104,162.26871 L -12.296868,168.62754 C -15.484474,169.75535 -16.446576,172.14335 -16.139157,174.67151 -15.831737,177.19967 -13.735539,179.42139 -10.523058,179.42139 H 12.668302 C 15.715755,179.42139 18.076273,176.57404 18.076273,174.0141 V 162.32101 H 13.277079 V 173.95594 C 13.277079,174.27033 12.92454,174.62286 12.610151,174.62286 H -10.572753 C -11.565282,174.62286 -11.590834,173.46734 -10.806866,173.18999 L 7.470997,166.72372 C 13.610092,164.55185 11.576641,156.08778 6.2315497,156.08778 Z" id="path873" sodipodi:nodetypes="ccsssssssccssssssc"/>
    <path style="color:#000000;fill:#000000;fill-opacity:1;stroke-width:0.999999;stroke-linejoin:round;-inkscape-stroke:none;paint-order:markers stroke fill" d="M 13.277079,156.08778 V 160.72372 H 18.076273 V 156.08778 Z" id="path875" sodipodi:nodetypes="ccccc"/>
    <path id="rect7740" style="color:#000000;fill:#000000;fill-opacity:1;stroke-width:1;stroke-linejoin:round;-inkscape-stroke:none;paint-order:markers stroke fill" d="M 43.333353,156.08784 C 40.752676,156.10167 38.737744,157.87568 37.517579,160.0014 36.292628,162.13547 35.645163,164.81796 35.645163,167.75465 35.645163,170.1389 36.072028,172.35581 36.888151,174.24763 H 42.555119 C 42.288851,174.01784 41.99071,173.66136 41.679738,173.1196 40.981664,171.90344 40.443626,169.95218 40.443626,167.75465 40.443626,165.55712 40.981664,163.60587 41.679738,162.3897 42.377815,161.17355 43.011883,160.88631 43.363679,160.88631 H 55.574934 C 55.92673,160.88631 56.560803,161.17355 57.258877,162.3897 57.956951,163.60587 58.494983,165.55712 58.494983,167.75465 58.494983,169.852 58.004424,171.72328 57.352849,172.94699 58.010743,174.08597 58.936489,174.24763 59.384829,174.24763 H 62.050466 C 62.86674,172.35583 63.294155,170.1389 63.294155,167.75465 63.294155,164.81796 62.645983,162.13547 61.421034,160.0014 60.196084,157.86734 58.170179,156.08784 55.574934,156.08784 H 43.363679 C 43.35354,156.08784 43.343473,156.08779 43.333353,156.08784 Z M 43.30338,174.6163 40.847377,178.80614 C 41.617667,179.19415 42.47045,179.42146 43.396119,179.42146 H 55.494008 C 55.795229,179.42146 56.088459,179.39664 56.373969,179.35094 54.687491,178.66497 53.351037,177.26225 52.45142,175.69497 52.254451,175.35182 52.077353,174.99126 51.909971,174.62282 H 43.396119 C 43.367166,174.62282 43.336149,174.6207 43.30338,174.6163 Z"/>
    <path id="rect7948" style="color:#000000;fill:#000000;fill-opacity:1;stroke-width:1;stroke-linejoin:round;-inkscape-stroke:none;paint-order:markers stroke fill" d="M 58.702859,156.08784 C 58.403801,156.08784 58.112632,156.11241 57.829064,156.15748 59.513519,156.84435 60.847362,158.24903 61.746153,159.81487 61.943494,160.15868 62.124361,160.51714 62.292003,160.88631 H 77.958944 L 80.772327,156.08784 Z M 52.228211,161.26149 C 51.411783,163.15327 50.984342,165.3702 50.984342,167.75465 50.984342,170.69135 51.632513,173.37437 52.857463,175.50843 54.082413,177.64249 56.107609,179.42146 58.702859,179.42146 H 70.914112 73.546953 C 77.445023,179.42146 80.657728,176.20858 80.657728,172.31051 80.657728,168.41245 77.445023,165.19903 73.546953,165.19903 H 68.88549 L 66.072278,169.99767 73.546953,169.9982 C 74.86954,169.99832 75.85927,170.98793 75.85927,172.31051 75.85927,173.6331 74.86954,174.62282 73.546953,174.62282 H 59.239023 C 58.593929,174.62282 57.716992,174.33576 57.018918,173.1196 56.320843,171.90344 55.782805,169.95218 55.782805,167.75465 55.782805,165.65721 56.273322,163.78567 56.924946,162.56196 56.26689,161.42242 55.721844,161.26149 55.574934,161.26149 Z" sodipodi:nodetypes="scscccscssscssscccssssscsc"/>
    <path id="path8058" style="color:#000000;fill:#000000;fill-opacity:1;stroke-width:1;stroke-linejoin:round;-inkscape-stroke:none;paint-order:markers stroke fill" d="M -37.519233,152.79348 C -45.269009,153.06791 -51.519335,159.48557 -51.519335,167.29942 -51.519335,170.0567 -50.740109,172.63981 -49.392326,174.8411 L -49.391092,174.85925 -49.38404,174.85573 -46.481619,173.4322 -44.762592,172.58908 -40.014554,170.2602 -37.002468,164.40458 -33.990558,170.2602 -29.242519,172.58908 -24.621072,174.85591 C -24.621072,174.85591 -24.621072,174.85573 -24.621072,174.85573 L -24.613844,174.85925 -24.612609,174.84092 C -23.264874,172.63966 -22.4856,170.05665 -22.4856,167.29942 -22.4856,159.48563 -28.736009,153.068 -36.485702,152.79348 L -33.317581,158.66532 C -29.95996,160.08688 -27.626106,163.4013 -27.626106,167.29942 -27.626106,167.49979 -27.636337,167.69753 -27.648497,167.89464 L -32.414167,165.55712 -37.002468,158.30618 -41.590769,165.55712 -46.356614,167.89464 C -46.368775,167.69753 -46.379006,167.49979 -46.379006,167.29942 -46.379006,163.4013 -44.044976,160.08688 -40.687354,158.66532 Z M -37.002468,169.56254 -42.990145,180.5167 C -41.162312,181.35075 -39.134391,181.81629 -37.002468,181.81629 -34.870627,181.81629 -32.842743,181.35087 -31.014968,180.51688 Z M -37.002468,174.75647 -35.985686,176.61672 C -36.320091,176.65234 -36.65802,176.67666 -37.002468,176.67666 -37.346913,176.67666 -37.68467,176.65198 -38.019073,176.61636 Z"/>
    <path style="color:#000000;fill:#000000;fill-opacity:1;stroke-width:0.999999;stroke-linejoin:round;-inkscape-stroke:none;paint-order:markers stroke fill" d="M 40.018967,179.4214 25.641288,179.42139 C 22.593836,179.42139 20.233317,176.57404 20.233317,174.0141 V 156.09112 H 25.032512 V 173.95594 C 25.032512,174.27033 25.385051,174.62286 25.699439,174.62286 H 42.832321 Z" id="path10219" sodipodi:nodetypes="cssccsscc"/>
  </g>
  <metadata id="metadata26184">
    <rdf:RDF>
      <cc:Work rdf:about="">
        <dc:title>Zilog logo</dc:title>
        <dc:date>2021-12-19</dc:date>
        <dc:creator>
          <cc:Agent>
            <dc:title>Daniel Beardsmore</dc:title>
          </cc:Agent>
        </dc:creator>
        <dc:description>Manually traced from the Serial Communication Controllers Product Specifications Databook 1995, scanned by Bitsavers.</dc:description>
      </cc:Work>
    </rdf:RDF>
  </metadata>
</svg>